<?xml version="1.0" encoding="utf-8"?>
<!-- Generator: Adobe Illustrator 22.0.1, SVG Export Plug-In . SVG Version: 6.00 Build 0)  -->
<svg version="1.1" id="Layer_1" xmlns="http://www.w3.org/2000/svg" xmlns:xlink="http://www.w3.org/1999/xlink" x="0px" y="0px"
	 viewBox="0 0 200 60.9" style="enable-background:new 0 0 200 60.9;" xml:space="preserve">
<style type="text/css">
	.st0{fill:#D7857B;}
	.st1{fill:#BE253A;}
	.st2{fill:#FFFFFF;}
</style>
<g>
	<g>
		<polygon class="st0" points="15.5,9 15.5,25.8 30,17.5 30,0.5 		"/>
		<polygon class="st0" points="31,35.9 31,52.8 45.4,44.4 45.4,27.5 		"/>
		<polygon class="st0" points="46.5,27 46.5,43.9 60.9,35.5 60.9,18.6 		"/>
		<polygon class="st0" points="46.4,9 46.4,25.8 60.9,17.5 60.9,0.5 		"/>
		<polygon class="st1" points="0,17.4 0,0.5 14.4,8.9 14.4,25.8 		"/>
		<polygon class="st1" points="0,35.5 0,18.6 14.4,26.9 14.4,43.9 		"/>
		<polygon class="st1" points="15.5,44.3 15.5,27.5 29.9,35.8 29.9,52.8 		"/>
		<polygon class="st1" points="31,17.4 31,0.5 45.4,8.9 45.4,25.8 		"/>
		<rect x="70.8" y="0.2" class="st2" width="3.7" height="37.1"/>
		<path class="st2" d="M79.4,23.4c0-2.1,0.4-4.1,1.3-5.9c0.8-1.8,1.9-3.3,3.2-4.5c1.4-1.2,2.9-2.2,4.6-2.8c0.8-0.3,1.7-0.6,2.5-0.7
			c0.8-0.2,1.7-0.3,2.5-0.3c1.8,0,3.5,0.3,5.2,1c1.7,0.6,3.2,1.6,4.6,2.8c1.4,1.2,2.5,2.8,3.3,4.7c0.8,1.9,1.2,4.1,1.2,6.5v0.7H83.1
			c0,0.7,0.1,1.4,0.3,2.1c0.2,0.7,0.5,1.3,0.9,2c0.7,1.2,1.5,2.2,2.6,3c1,0.8,2.1,1.4,3.3,1.8c1.2,0.4,2.3,0.6,3.3,0.6
			c2,0,4-0.6,5.9-1.8c2-1.2,3.2-2.6,3.9-4.3h3.8c-0.3,0.8-0.6,1.6-1,2.3c-0.4,0.7-0.8,1.4-1.4,2c-1,1.2-2.1,2.2-3.4,3
			c-1.2,0.8-2.6,1.4-4,1.8C96,37.8,94.7,38,93.3,38c-1.2,0-2.3-0.2-3.4-0.5c-1.1-0.3-2.2-0.8-3.4-1.5c-2.1-1.2-3.9-2.9-5.1-5.1
			C80.1,28.8,79.4,26.3,79.4,23.4 M104.3,21.6c-0.3-1.5-0.9-3-1.9-4.3c-1-1.4-2.3-2.4-3.8-3.3c-1.5-0.8-3.2-1.2-4.9-1.2
			c-2.4,0-4.3,0.6-5.9,1.7c-1.6,1.1-2.7,2.4-3.4,3.7c-0.7,1.4-1.2,2.5-1.3,3.4H104.3z"/>
		<path class="st2" d="M112.8,35.8V9.9h3.8v27c0,2.4-0.7,4.6-2,6.6c-0.7,1.1-1.6,1.9-2.9,2.5c-1.2,0.6-2.7,0.9-4.5,0.9v-3.6
			c1.7,0,3-0.5,4-1.5C112.3,40.8,112.8,38.8,112.8,35.8 M116.6,6.6h-3.8V0.2h3.8V6.6z"/>
		<path class="st2" d="M121.4,23.8c0-2.9,0.7-5.4,2.1-7.7c1.4-2.2,3.3-4,5.5-5.2c2.3-1.2,4.6-1.8,7-1.8c1.1,0,2.2,0.1,3.2,0.4
			c1,0.3,2,0.6,3,1.1c1.9,0.9,3.4,2.4,4.6,4.5V9.9h3.6v27.4h-3.6v-5.2c-1,1.8-2.5,3.2-4.5,4.3c-2,1.1-4.2,1.6-6.6,1.6
			c-1.2,0-2.4-0.2-3.6-0.5c-1.2-0.3-2.3-0.8-3.5-1.4c-2.2-1.2-4-2.8-5.3-5C122.1,29,121.4,26.5,121.4,23.8 M125.2,22.9
			c0,2.3,0.5,4.3,1.5,6c1,1.7,2.3,3.1,3.9,4c0.8,0.5,1.7,0.8,2.5,1.1c0.8,0.2,1.7,0.4,2.6,0.4c1.5,0,2.9-0.3,4.3-0.9
			c1.4-0.6,2.6-1.4,3.6-2.4c1-1,1.8-2.2,2.4-3.4c0.5-1.3,0.8-2.6,0.8-3.9c0-1.5-0.3-2.9-0.8-4.2c-0.5-1.3-1.3-2.4-2.3-3.4
			c-1-1-2.1-1.8-3.4-2.4c-0.7-0.3-1.3-0.5-2-0.7c-0.7-0.2-1.4-0.3-2.1-0.3c-2.2,0-4.1,0.5-5.7,1.6c-1.7,1-3,2.4-3.9,3.9
			C125.7,19.9,125.2,21.4,125.2,22.9"/>
		<path class="st2" d="M156.5,37.3V9.9h3.5V14c0.6-1,1.4-1.9,2.2-2.5c0.9-0.7,1.9-1.2,3-1.6c1.1-0.4,2.3-0.6,3.5-0.6
			c1.5,0,3,0.3,4.4,0.8c1.4,0.5,2.7,1.4,3.9,2.4c1.2,1.1,2.1,2.4,2.7,4c0.7,1.6,1,3.3,1,5.3v15.5h-3.6V21.8c0-1.9-0.4-3.5-1.2-4.9
			c-0.8-1.3-1.9-2.3-3.2-3c-1.3-0.7-2.7-1-4.2-1c-1.4,0-2.8,0.3-4,1c-1.3,0.6-2.3,1.6-3.1,2.9c-0.8,1.3-1.2,2.8-1.2,4.6v15.9H156.5z
			"/>
		<polygon class="st2" points="189.9,37.3 189.9,13.2 184.1,13.2 184.1,9.9 189.9,9.9 189.9,0.2 193.6,0.2 193.6,9.9 200,9.9 
			200,13.2 193.6,13.2 193.6,37.3 		"/>
	</g>
	<g>
		<path class="st2" d="M138.3,43.8h1.6v2.2h0c1.5-2.1,3.6-2.6,5-2.6c4.2,0,6.9,3.3,6.9,6.7c0,3.7-2.9,6.7-6.9,6.7
			c-1.3,0-3.6-0.5-5-2.6h0v6.7h-1.6V43.8z M144.9,45c-2.9,0-5.1,2.5-5.1,5.3c0,3,2.4,5.2,5.1,5.2c3.1,0,5.2-2.3,5.2-5.2
			C150.2,47,147.7,45,144.9,45z"/>
		<path class="st2" d="M154.3,43.8h1.6v1.8h0c0.8-1.8,2.2-2.1,3.6-2.2v1.7c-1.1,0.1-2.1,0.5-2.8,1.3c-0.6,0.7-0.9,1.6-0.9,2.6v7.5
			h-1.6V43.8z"/>
		<path class="st2" d="M167.3,43.5c3.8,0,6.7,3.2,6.7,6.7c0,3.5-2.9,6.7-6.7,6.7c-3.7,0-6.7-3.2-6.7-6.6
			C160.7,46.3,164,43.5,167.3,43.5z M167.4,55.5c2.5,0,5.1-2,5.1-5.3c0-3.4-2.9-5.2-5.1-5.2c-2.3,0-5.1,1.9-5.1,5.3
			C162.3,53.3,164.7,55.5,167.4,55.5z"/>
		<path class="st2" d="M178.2,55.7c0,1.5,0,3.1-1.4,4.4c-1.1,1-2.1,1-2.8,1v-1.6c2.2-0.1,2.6-1.6,2.6-3.8V43.8h1.6V55.7z
			 M176.6,39.3h1.6v2.9h-1.6V39.3z"/>
		<path class="st2" d="M182.4,50.8c0.1,2.5,2.5,4.6,5,4.6c2.3,0,4-1.4,4.6-3h1.7c-0.9,2.6-3.3,4.5-6.3,4.5c-3.6,0-6.7-2.9-6.7-6.7
			c0-3.6,2.9-6.7,6.6-6.7c2.8,0,4.8,1.7,5.7,3.3c0.7,1.2,1,2.5,1,3.6c0,0.2,0,0.3,0,0.5H182.4z M192.3,49.3c-0.5-3-3-4.4-5-4.4
			c-2,0-4.5,1.4-5,4.4H192.3z"/>
	</g>
</g>
</svg>
